<svg preserveAspectRatio="xMidYMid meet" data-bbox="0 0 712.99 236.29" viewBox="0 0 712.99 236.29" xmlns="http://www.w3.org/2000/svg" data-type="color" role="presentation" aria-hidden="true">
    <g>
        <g>
            <path d="m570.47.06-8.65 33-62.67.06-7.43 29.7h29c14.85.23 31.94.68 31.94 20.93 0 6.07-1.34 11.7-3.59 21.15L543 128.31c-2 7.65-7 16-11.47 20.25-10.8 10.35-24.53 10.35-34.88 10.35h-69.73l8.26-33.14 65.54.06 8.1-31.95H478c-12.38-.22-30.15-.22-30.15-21.15a62.94 62.94 0 0 1 1.8-13.05L456 34.26c2.25-7.65 4.5-15.3 10.8-22C477.55.51 490.82.28 501.17.06z" fill="#ffffff" data-color="1"></path>
            <path fill="#ffffff" d="M627.25 158.91h-43.23l31.32-125.78-46.7-.05L576.87.06h136.12l-8.29 33.16-46.16-.09-31.29 125.78z" data-color="1"></path>
            <path d="M299.27.06H269.8c-22.05 0-36 1.57-45 22.27-2.69 6.21-5.62 16.17-8.34 26h42.48c1.57-5.67 3-10.83 4.33-15.17h23.85c-2 7.88-8.55 34.88-11 44.78q-5.75 24-12.15 47.92h-24.3c1-4.63 2.14-10 3.47-15.68h-42.26c-2.55 10.28-4.43 19.1-4.43 26 0 22 17.55 22.5 35.32 22.73h29.7c16.2 0 23.4-2.25 30.15-7.65 10.8-8.33 14.18-19.58 20.7-43.88l12.38-50.62c2.7-11.25 6.52-23.4 6.52-34.65 0-20.93-18.45-21.6-32-22z" fill="#ffffff" data-color="1"></path>
            <path fill="#a39383" d="M251.92 76.36h-17.9l4.46-17.9h17.9l-4.46 17.9z" data-color="2"></path>
            <path fill="#ffffff" d="M245.97 100.59h-17.91l4.47-17.9h17.9l-4.46 17.9z" data-color="1"></path>
            <path fill="#ffffff" d="M227.31 76.36h-17.9l4.47-17.9h17.9l-4.47 17.9z" data-color="1"></path>
            <path fill="#5b89b4" d="M221.25 100.59h-17.9l4.46-17.9h17.91l-4.47 17.9z" data-color="3"></path>
            <path d="M418.43.06H389c-22 0-36 1.57-45 22.27-2.68 6.21-5.62 16.17-8.34 26h42.49c1.57-5.67 3-10.83 4.32-15.17h23.85c-2 7.88-8.55 34.88-11 44.78q-5.75 24-12.15 47.92h-24.3c1-4.63 2.14-10 3.48-15.68H320c-2.55 10.28-4.43 19.1-4.43 26 0 22 17.55 22.5 35.33 22.73h29.7c16.19 0 23.39-2.25 30.14-7.65 10.8-8.33 14.18-19.58 20.7-43.88l12.38-50.62c2.7-11.25 6.52-23.4 6.52-34.65 0-20.93-18.45-21.6-31.95-22z" fill="#ffffff" data-color="1"></path>
            <path fill="#ffffff" d="M371.02 76.36h-17.9l4.46-17.9h17.9l-4.46 17.9z" data-color="1"></path>
            <path fill="#ffffff" d="M365.06 100.59h-17.9l4.46-17.9h17.91l-4.47 17.9z" data-color="1"></path>
            <path fill="#5b89b4" d="M346.41 76.36h-17.9l4.46-17.9h17.9l-4.46 17.9z" data-color="3"></path>
            <path fill="#a39383" d="M340.35 100.59h-17.91l4.47-17.9h17.9l-4.46 17.9z" data-color="2"></path>
            <path fill="#ffffff" d="m92.39 76.36 4.47-17.9H53.73l-4.47 17.9h43.13z" data-color="1"></path>
            <path fill="#5b89b4" d="m86.33 100.59 4.47-17.9H4.46L0 100.59h86.33z" data-color="3"></path>
            <path d="M698 142.08h-20l-3.82 12.76h12.46l7.81 39.32-47.13 26.31-28-26.31 5.22-16.09h-13.39l-6.81 21 43 37.22L709.45 199z" fill="#5788b4" data-color="4"></path>
            <path d="M180.76 0h-74.58l-12 48.3H113l-6.88 28.06L94 125.83H75l-8.37 33h72.11c14.17 0 28.57 0 38.7-9.45 7.42-6.75 10.57-17.55 13.27-26.78l3.15-11.92c1.12-5 2.47-9.68 2.25-14.85 0-14.18-11.48-16.88-23.85-18.9 7-1.13 16.43-2.7 24.07-11.7 5.63-6.53 7.65-14.85 9.45-22l2.22-9.48a56.41 56.41 0 0 0 1.8-13.95C209.78.67 193.81.22 180.76 0zM158.3 67.51h-15.2l-5.62 24.21h17.44L147 125.77h-25.86L125 110.2l15.45-61.9 3.86-15.23h23.62z" fill="#ffffff" data-color="1"></path>
        </g>
    </g>
</svg>