<svg width="76" height="9" viewBox="0 0 76 9" fill="none" xmlns="http://www.w3.org/2000/svg">
<path d="M5.03974 8.53107L3.73601 5.53108H2.43228V8.53107H0.8125V0.435028H4.93815C5.88067 0.435028 6.53536 1.08475 6.53536 2.0339V3.9322C6.53536 4.69492 6.10643 5.27118 5.43481 5.46327L6.78369 8.53107H5.03974ZM4.91557 2.34464C4.91557 2.09605 4.78012 1.96045 4.53179 1.96045H2.43228V4.01695H4.53179C4.78012 4.01695 4.91557 3.88136 4.91557 3.63277V2.33898V2.34464Z" fill="#231F20"/>
<path d="M11.6715 0.389832C12.614 0.389832 13.2687 1.03955 13.2687 1.9887V6.98305C13.2687 7.92655 12.6197 8.58192 11.6715 8.58192H8.96244C8.01992 8.58192 7.36523 7.9322 7.36523 6.98305V1.9887C7.36523 1.0452 8.01428 0.389832 8.96244 0.389832H11.6715ZM11.6489 2.29944C11.6489 2.05085 11.5135 1.91525 11.2651 1.91525H9.3688C9.12047 1.91525 8.98502 2.05085 8.98502 2.29944V6.66102C8.98502 6.90961 9.12047 7.0452 9.3688 7.0452H11.2651C11.5135 7.0452 11.6489 6.90961 11.6489 6.66102V2.29944Z" fill="#231F20"/>
<path d="M18.0599 2.29944C18.0599 2.05085 17.9244 1.91525 17.6761 1.91525H16.0563C15.808 1.91525 15.6725 2.05085 15.6725 2.29944V3.06215C15.6725 3.31073 15.808 3.38983 16.0563 3.44633L18.1445 3.89831C19.0193 4.0904 19.7643 4.61582 19.7643 5.51978V6.98305C19.7643 7.92655 19.1153 8.58192 18.1671 8.58192H15.6499C14.7074 8.58192 14.0527 7.9322 14.0527 6.98305V5.94915H15.6274V6.66667C15.6274 6.91526 15.7628 7.05085 16.0111 7.05085H17.7664C18.0147 7.05085 18.1502 6.91526 18.1502 6.66667V5.81356C18.1502 5.56498 18.0147 5.48588 17.7664 5.42938L15.6782 4.97741C14.8034 4.78532 14.0584 4.25989 14.0584 3.35593V1.98306C14.0584 1.03955 14.7074 0.384186 15.6556 0.384186H18.0373C18.9798 0.384186 19.6345 1.0339 19.6345 1.98306V2.92656H18.0599V2.29944Z" fill="#231F20"/>
<path d="M23.7545 1.93786V8.52543H22.1347V1.93786H20.0239V0.429382H25.8653V1.93786H23.7545Z" fill="#231F20"/>
<path d="M31.769 0.435028V1.96611H28.0949V3.63277H31.0692V5.16384H28.0949V7.00565H31.769V8.53672H26.4751V0.440675H31.769V0.435028Z" fill="#231F20"/>
<path d="M36.8542 8.53107L35.5505 5.53108H34.2467V8.53107H32.627V0.435028H36.7526C37.6951 0.435028 38.3498 1.08475 38.3498 2.0339V3.9322C38.3498 4.69492 37.9209 5.27118 37.2493 5.46327L38.5981 8.53107H36.8542ZM36.73 2.34464C36.73 2.09605 36.5946 1.96045 36.3462 1.96045H34.2467V4.01695H36.3462C36.5946 4.01695 36.73 3.88136 36.73 3.63277V2.33898V2.34464Z" fill="#231F20"/>
<path d="M43.7734 2.30508C43.7734 2.05649 43.638 1.9209 43.3897 1.9209H41.6344C41.3861 1.9209 41.2506 2.05649 41.2506 2.30508V6.68361C41.2506 6.93219 41.3861 7.06779 41.6344 7.06779H43.3897C43.638 7.06779 43.7734 6.93219 43.7734 6.68361V5.68926H45.3989V6.99999C45.3989 7.94914 44.7442 8.59886 43.796 8.59886H41.2281C40.2799 8.59886 39.6309 7.94349 39.6309 6.99999V1.99434C39.6309 1.04519 40.2855 0.395477 41.2281 0.395477H43.796C44.7442 0.395477 45.3989 1.05084 45.3989 1.99434V3.30508H43.7734V2.31073V2.30508Z" fill="#231F20"/>
<path d="M46.2734 0.435028H47.8932V3.63842H50.6869V0.435028H52.3067V8.55367H50.6869V5.16949H47.8932V8.55367H46.2734V0.435028Z" fill="#231F20"/>
<path d="M54.4965 8.55367H52.8203L55.4334 0.435028H57.3241L59.9372 8.55367H58.1932L57.6627 6.72881H55.0383L54.4965 8.55367ZM55.4898 5.19209H57.2225L56.3646 2.21469L55.4842 5.19209H55.4898Z" fill="#231F20"/>
<path d="M68.2 8.55367H66.6648V3.14125L64.9096 7.25989H63.7357L61.9804 3.14125V8.55367H60.4453V0.435028H62.2231L64.317 5.19774L66.4109 0.435028H68.1887V8.55367H68.2Z" fill="#231F20"/>
<path d="M73.5615 0.435028C74.5097 0.435028 75.1644 1.09039 75.1644 2.03955V4.0904C75.1644 5.03955 74.5097 5.68927 73.5615 5.68927H71.0387V8.55367H69.4189V0.435028H73.5672H73.5615ZM73.1552 4.15819C73.4035 4.15819 73.5389 4.0226 73.5389 3.77401V2.35028C73.5389 2.10169 73.4035 1.96611 73.1552 1.96611H71.0387V4.15254H73.1552V4.15819Z" fill="#231F20"/>
</svg>
