<?xml version="1.0" standalone="no"?>
<!DOCTYPE svg PUBLIC "-//W3C//DTD SVG 20010904//EN"
 "http://www.w3.org/TR/2001/REC-SVG-20010904/DTD/svg10.dtd">
<svg version="1.0" xmlns="http://www.w3.org/2000/svg"
 width="2400.000000pt" height="1800.000000pt" viewBox="0 0 2400.000000 1800.000000"
 preserveAspectRatio="xMidYMid meet">

<g transform="translate(0.000000,1800.000000) scale(0.100000,-0.100000)"
fill="#FFFFFF" stroke="none">
<path d="M7124 10275 c-181 -300 -331 -545 -334 -545 -3 0 -39 106 -80 235
-40 130 -77 232 -80 228 -4 -5 -123 -294 -265 -643 l-257 -635 -20 -132 -20
-133 81 -199 c45 -110 81 -205 81 -212 0 -19 -314 -769 -322 -769 -6 0 -352
262 -373 283 -7 6 35 8 125 3 l135 -6 98 195 97 195 0 305 0 305 40 100 40
101 -208 410 -209 410 -514 -997 -514 -997 -288 -301 -287 -301 1545 -3 c850
-1 2239 -1 3088 0 l1543 3 -667 845 c-367 464 -671 846 -677 848 -5 1 -54 -81
-108 -183 -75 -141 -101 -182 -109 -172 -5 8 -278 530 -605 1161 -327 630
-598 1146 -601 1146 -3 0 -154 -245 -335 -545z m419 -243 l138 -247 35 -250
c19 -137 37 -262 40 -276 4 -23 17 -31 93 -58 l88 -32 58 -122 c41 -87 93
-171 179 -292 67 -93 125 -176 130 -182 4 -8 -19 -52 -63 -115 l-69 -103 -744
-231 c-409 -128 -745 -230 -747 -228 -2 2 38 56 89 120 l93 117 -18 126 -18
126 128 293 c70 161 126 294 124 296 -2 2 -53 22 -114 46 -60 23 -111 43 -112
44 -1 1 6 85 17 186 l19 185 98 229 98 229 22 -49 c19 -42 22 -67 22 -184 l1
-135 92 -57 c51 -31 94 -55 96 -54 1 2 -13 38 -33 81 l-35 77 0 295 c0 162 4
292 8 289 5 -3 22 -38 38 -78 l29 -73 5 95 5 95 27 -70 26 -70 1 113 c1 61 4
112 9 112 4 -1 69 -112 145 -248z m-873 -817 c0 -6 -16 -65 -35 -132 -19 -67
-35 -128 -35 -135 1 -7 25 -83 55 -168 29 -85 52 -157 49 -159 -2 -2 -33 15
-69 39 l-65 42 -65 -26 c-36 -14 -105 -49 -153 -76 -47 -27 -87 -48 -88 -47
-2 2 242 827 262 886 5 14 144 -203 144 -224z m-976 -79 l12 -106 -37 -77
c-21 -43 -76 -158 -122 -255 l-85 -176 114 -69 c62 -37 113 -71 111 -75 -1 -4
-102 -112 -223 -241 l-222 -233 20 -103 c19 -101 19 -104 0 -125 -10 -11 -70
-79 -132 -151 -62 -71 -119 -131 -127 -133 -17 -5 -246 38 -256 48 -5 4 52
174 125 377 l134 370 334 532 c183 292 335 529 338 527 2 -3 10 -52 16 -110z
m3596 -1142 c201 -295 367 -540 368 -545 2 -5 -193 -8 -474 -7 l-477 3 -29 69
c-15 38 -28 72 -28 76 0 4 26 18 58 31 31 12 85 35 120 51 l62 27 -83 168 -84
168 95 248 c52 136 98 247 101 247 3 -1 170 -242 371 -536z m-2781 -366 c6
-68 15 -146 18 -174 l5 -52 83 58 83 58 96 -64 97 -65 -6 48 c-13 109 -21 203
-17 203 2 0 71 -64 153 -141 l149 -141 0 71 c0 39 3 71 6 71 4 0 36 -18 72
-41 35 -22 67 -37 71 -32 4 4 22 43 41 86 18 42 34 77 35 77 2 0 16 -20 32
-45 15 -25 32 -45 36 -45 4 0 47 32 95 70 48 39 90 70 93 70 4 0 34 -42 68
-94 54 -82 70 -98 121 -125 l58 -31 31 55 c34 61 38 62 121 40 79 -21 79 -22
82 39 l3 55 68 -55 c44 -36 69 -51 71 -42 3 7 14 46 25 87 11 40 22 75 24 78
3 2 15 -33 27 -79 12 -46 35 -130 50 -188 16 -58 27 -106 26 -107 -2 -2 -504
-2 -1116 -1 l-1113 3 89 76 89 76 55 162 c30 88 58 161 61 161 3 0 11 -55 18
-122z"/>
<path d="M10853 9890 c-119 -24 -212 -99 -248 -202 -18 -49 -20 -90 -23 -505
-2 -370 0 -462 12 -507 30 -118 96 -190 205 -224 72 -22 402 -21 705 2 115 9
213 16 218 16 4 0 8 63 8 140 l0 141 -57 -6 c-122 -12 -394 -25 -526 -25
l-139 0 -29 29 -29 29 0 377 c0 405 2 418 53 447 16 10 111 14 375 16 l352 3
0 140 0 139 -417 -1 c-230 -1 -437 -5 -460 -9z"/>
<path d="M13192 9278 l3 -623 24 -53 c32 -72 107 -137 179 -158 45 -13 80 -15
167 -10 60 3 127 9 148 12 l37 7 0 133 0 134 -79 0 c-131 0 -121 -53 -121 616
l0 564 -180 0 -181 0 3 -622z"/>
<path d="M15040 9175 l0 -725 180 0 180 0 0 409 0 409 23 6 c12 4 92 10 178
13 l155 6 22 -28 c22 -27 22 -32 22 -421 l0 -394 181 0 180 0 -3 448 c-3 445
-3 447 -27 499 -26 58 -90 123 -148 150 -52 25 -345 24 -481 0 -50 -9 -94 -17
-97 -17 -3 0 -5 83 -5 185 l0 185 -180 0 -180 0 0 -725z"/>
<path d="M18820 9175 l0 -725 180 0 180 0 0 220 0 220 78 0 79 0 119 -220 119
-219 192 -1 191 0 -154 283 c-87 160 -152 288 -148 297 3 8 68 122 145 252 77
131 142 244 145 253 5 13 -18 15 -182 15 l-189 -1 -115 -194 -114 -195 -83 0
-83 0 0 370 0 370 -180 0 -180 0 0 -725z"/>
<path d="M12081 9555 c-93 -26 -173 -102 -202 -194 -17 -51 -24 -568 -10 -661
19 -122 69 -191 171 -239 l55 -26 340 0 c326 0 342 1 386 21 66 31 123 86 150
147 24 51 24 55 24 397 0 342 0 346 -24 397 -27 61 -84 116 -150 147 -44 20
-63 21 -366 23 -257 2 -331 -1 -374 -12z m539 -285 c19 -19 20 -33 20 -270 0
-237 -1 -251 -20 -270 -18 -18 -33 -20 -184 -20 -146 0 -166 2 -187 19 l-24
19 0 252 0 252 24 19 c21 17 41 19 187 19 151 0 166 -2 184 -20z"/>
<path d="M14104 9536 c-92 -22 -157 -75 -196 -161 -23 -49 -23 -56 -23 -395 0
-336 1 -346 22 -386 36 -67 70 -101 131 -131 l57 -28 205 2 c113 1 284 9 380
17 96 9 178 16 182 16 4 0 8 61 8 135 l0 135 -37 -5 c-72 -10 -345 -25 -449
-25 -153 0 -144 -17 -144 280 0 227 1 241 20 260 19 19 33 20 315 20 l295 0 0
140 0 140 -357 -1 c-248 0 -374 -5 -409 -13z"/>
<path d="M16352 9098 c3 -437 4 -455 24 -499 12 -25 38 -63 59 -84 60 -59 113
-78 237 -83 135 -6 258 20 374 78 43 22 79 40 81 40 1 0 4 -15 8 -32 15 -73 1
-68 171 -68 l154 0 0 550 0 550 -175 0 -175 0 0 -390 0 -389 -38 -11 c-81 -21
-148 -30 -232 -30 -140 0 -130 -32 -130 433 l0 387 -180 0 -181 0 3 -452z"/>
<path d="M17883 9536 c-86 -21 -149 -70 -191 -151 l-27 -50 0 -350 c0 -342 1
-351 22 -391 36 -67 70 -101 131 -131 l57 -28 205 2 c113 1 284 9 380 17 96 9
178 16 182 16 4 0 8 61 8 135 l0 135 -37 -5 c-72 -10 -345 -25 -449 -25 -153
0 -144 -17 -144 280 0 227 1 241 20 260 19 19 33 20 315 20 l295 0 0 140 0
140 -357 -1 c-251 0 -374 -4 -410 -13z"/>
<path d="M12972 7972 c-93 -34 -152 -109 -173 -224 -24 -130 22 -267 110 -325
93 -63 234 -55 309 16 l22 22 -22 29 c-12 17 -24 30 -26 30 -2 0 -18 -10 -35
-22 -47 -34 -132 -37 -176 -6 -55 37 -74 79 -79 174 -4 75 -2 89 22 137 45 94
150 125 226 68 l29 -21 25 32 c29 38 24 48 -37 80 -57 29 -131 32 -195 10z"/>
<path d="M13457 7974 c-107 -33 -169 -137 -170 -283 0 -112 24 -183 81 -240
57 -57 114 -76 202 -68 145 13 230 125 230 302 0 102 -22 168 -77 226 -69 74
-160 95 -266 63z m153 -93 c56 -30 85 -97 85 -196 0 -141 -54 -215 -157 -215
-96 0 -154 93 -146 233 8 156 108 237 218 178z"/>
<path d="M14629 7977 c-83 -31 -119 -77 -119 -153 0 -81 26 -110 150 -170 58
-28 113 -59 123 -69 24 -26 21 -62 -8 -90 -19 -20 -34 -25 -75 -25 -53 0 -112
19 -142 47 -17 16 -20 14 -48 -18 l-29 -34 32 -28 c57 -50 173 -70 259 -47
103 29 157 142 112 236 -21 43 -48 62 -153 108 -100 43 -121 60 -121 97 0 64
93 89 178 47 l45 -21 24 27 c19 23 21 31 12 43 -40 47 -172 75 -240 50z"/>
<path d="M17473 7981 c-58 -15 -124 -61 -154 -109 -39 -61 -49 -101 -49 -194
0 -97 26 -170 77 -220 63 -60 97 -73 193 -73 72 0 93 4 135 26 l50 25 3 137 3
137 -101 0 -100 0 0 -45 0 -45 55 0 55 0 0 -65 c0 -76 -10 -85 -90 -85 -67 0
-120 29 -151 84 -20 34 -24 55 -24 126 0 98 22 152 77 192 46 32 143 33 187 1
l30 -23 25 32 c29 38 24 48 -38 80 -44 22 -133 32 -183 19z"/>
<path d="M13930 7686 l0 -296 46 0 46 0 -4 225 c-2 124 -3 225 -1 225 1 0 26
-48 56 -107 30 -60 84 -160 119 -223 l65 -115 52 -3 51 -3 0 295 0 296 -46 0
-47 0 5 -231 5 -231 -52 104 c-29 56 -84 159 -122 228 l-70 125 -51 3 -52 3 0
-295z"/>
<path d="M15012 7763 c4 -241 10 -268 71 -331 76 -79 254 -68 319 19 43 58 48
90 48 315 l0 214 -44 0 -45 0 -3 -207 c-3 -227 -12 -268 -64 -292 -37 -17
-106 -13 -130 7 -45 36 -49 57 -52 280 l-4 212 -50 0 -50 0 4 -217z"/>
<path d="M15610 7685 l0 -295 170 0 170 0 0 40 0 40 -120 0 -120 0 0 255 0
255 -50 0 -50 0 0 -295z"/>
<path d="M15900 7935 l0 -45 85 0 85 0 0 -250 0 -250 50 0 50 0 0 250 0 250
85 0 85 0 0 45 0 45 -220 0 -220 0 0 -45z"/>
<path d="M16450 7685 l0 -295 50 0 50 0 0 295 0 295 -50 0 -50 0 0 -295z"/>
<path d="M16700 7685 l0 -295 52 0 51 0 -6 226 -5 227 71 -135 c40 -74 94
-176 122 -226 l50 -92 52 0 53 0 0 295 0 295 -46 0 -46 0 4 -226 c1 -124 -1
-220 -5 -212 -4 7 -59 108 -122 223 l-114 210 -55 3 -56 3 0 -296z"/>
</g>
</svg>
