<?xml version="1.0" standalone="no"?>
<!DOCTYPE svg PUBLIC "-//W3C//DTD SVG 20010904//EN"
 "http://www.w3.org/TR/2001/REC-SVG-20010904/DTD/svg10.dtd">
<svg version="1.0" xmlns="http://www.w3.org/2000/svg"
 width="2400.000000pt" height="1800.000000pt" viewBox="0 0 2400.000000 1800.000000"
 preserveAspectRatio="xMidYMid meet">

<g transform="translate(0.000000,1800.000000) scale(0.100000,-0.100000)"
fill="white" stroke="none">
<path d="M7124 10275 c-181 -300 -331 -545 -334 -545 -3 0 -39 106 -80 235
-40 130 -77 232 -80 228 -4 -5 -123 -294 -265 -643 l-257 -635 -20 -132 -20
-133 81 -199 c45 -110 81 -205 81 -212 0 -19 -314 -769 -322 -769 -6 0 -352
262 -373 283 -7 6 35 8 125 3 l135 -6 98 195 97 195 0 305 0 305 40 100 40
101 -208 410 -209 410 -514 -997 -514 -997 -288 -301 -287 -301 1545 -3 c850
-1 2239 -1 3088 0 l1543 3 -667 845 c-367 464 -671 846 -677 848 -5 1 -54 -81
-108 -183 -75 -141 -101 -182 -109 -172 -5 8 -278 530 -605 1161 -327 630
-598 1146 -601 1146 -3 0 -154 -245 -335 -545z m419 -243 l138 -247 35 -250
c19 -137 37 -262 40 -276 4 -23 17 -31 93 -58 l88 -32 58 -122 c41 -87 93
-171 179 -292 67 -93 125 -176 130 -182 4 -8 -19 -52 -63 -115 l-69 -103 -744
-231 c-409 -128 -745 -230 -747 -228 -2 2 38 56 89 120 l93 117 -18 126 -18
126 128 293 c70 161 126 294 124 296 -2 2 -53 22 -114 46 -60 23 -111 43 -112
44 -1 1 6 85 17 186 l19 185 98 229 98 229 22 -49 c19 -42 22 -67 22 -184 l1
-135 92 -57 c51 -31 94 -55 96 -54 1 2 -13 38 -33 81 l-35 77 0 295 c0 162 4
292 8 289 5 -3 22 -38 38 -78 l29 -73 5 95 5 95 27 -70 26 -70 1 113 c1 61 4
112 9 112 4 -1 69 -112 145 -248z m-873 -817 c0 -6 -16 -65 -35 -132 -19 -67
-35 -128 -35 -135 1 -7 25 -83 55 -168 29 -85 52 -157 49 -159 -2 -2 -33 15
-69 39 l-65 42 -65 -26 c-36 -14 -105 -49 -153 -76 -47 -27 -87 -48 -88 -47
-2 2 242 827 262 886 5 14 144 -203 144 -224z m-976 -79 l12 -106 -37 -77
c-21 -43 -76 -158 -122 -255 l-85 -176 114 -69 c62 -37 113 -71 111 -75 -1 -4
-102 -112 -223 -241 l-222 -233 20 -103 c19 -101 19 -104 0 -125 -10 -11 -70
-79 -132 -151 -62 -71 -119 -131 -127 -133 -17 -5 -246 38 -256 48 -5 4 52
174 125 377 l134 370 334 532 c183 292 335 529 338 527 2 -3 10 -52 16 -110z
m3596 -1142 c201 -295 367 -540 368 -545 2 -5 -193 -8 -474 -7 l-477 3 -29 69
c-15 38 -28 72 -28 76 0 4 26 18 58 31 31 12 85 35 120 51 l62 27 -83 168 -84
168 95 248 c52 136 98 247 101 247 3 -1 170 -242 371 -536z m-2781 -366 c6
-68 15 -146 18 -174 l5 -52 83 58 83 58 96 -64 97 -65 -6 48 c-13 109 -21 203
-17 203 2 0 71 -64 153 -141 l149 -141 0 71 c0 39 3 71 6 71 4 0 36 -18 72
-41 35 -22 67 -37 71 -32 4 4 22 43 41 86 18 42 34 77 35 77 2 0 16 -20 32
-45 15 -25 32 -45 36 -45 4 0 47 32 95 70 48 39 90 70 93 70 4 0 34 -42 68
-94 54 -82 70 -98 121 -125 l58 -31 31 55 c34 61 38 62 121 40 79 -21 79 -22
82 39 l3 55 68 -55 c44 -36 69 -51 71 -42 3 7 14 46 25 87 11 40 22 75 24 78
3 2 15 -33 27 -79 12 -46 35 -130 50 -188 16 -58 27 -106 26 -107 -2 -2 -504
-2 -1116 -1 l-1113 3 89 76 89 76 55 162 c30 88 58 161 61 161 3 0 11 -55 18
-122z"/>
</g>
</svg>
