<?xml version="1.0" encoding="UTF-8"?>
<svg version="1.1" xmlns="http://www.w3.org/2000/svg" width="653" height="722">
<path d="M0 0 C1.31318741 0.39860386 2.62690839 0.79545306 3.94108582 1.19078064 C6.88708972 2.07964697 9.82990612 2.97824318 12.77108765 3.88293457 C18.10221477 5.51898645 23.44559525 7.11300492 28.7902832 8.70410156 C40.68844724 12.24863037 52.57948035 15.8166498 64.46940994 19.38869095 C68.04392509 20.46241308 71.61860185 21.53559549 75.19332886 22.60861206 C115.77982423 34.79165521 156.35230914 47.02098596 196.91723633 59.27563477 C197.93992646 59.58451283 198.9626166 59.8933909 200.01629734 60.21162891 C205.07155144 61.73865572 210.12629629 63.26732936 215.18000793 64.79945374 C224.92755349 67.75276464 234.68010304 70.68686931 244.44733906 73.57449818 C249.29992096 75.01017256 254.1500431 76.45405826 259.00001335 77.89852715 C261.31996682 78.58700626 263.64109409 79.2715445 265.96347237 79.95179939 C291.04018497 87.29932665 291.04018497 87.29932665 298.6875 92.38671875 C299.96880251 94.94932377 299.84265469 96.80920105 299.88037109 99.67944336 C299.89620239 100.79797195 299.91203369 101.91650055 299.92834473 103.06892395 C299.93910034 104.29656967 299.94985596 105.52421539 299.9609375 106.7890625 C299.97972961 108.70769356 299.97972961 108.70769356 299.99890137 110.66508484 C300.03480869 114.8847666 300.05169361 119.10440499 300.0625 123.32421875 C300.06450661 124.04470146 300.06651321 124.76518417 300.06858063 125.50749969 C300.12719922 152.69904402 298.44262898 179.3926772 295.06109619 206.38989258 C294.68516459 209.40545238 294.32036266 212.42217552 293.95849609 215.43945312 C292.35229839 228.77703362 290.58933338 242.08815833 288.6875 255.38671875 C288.57446533 256.1822113 288.46143066 256.97770386 288.3449707 257.79730225 C276.20874528 342.8336069 254.08545336 427.62630769 212.6875 511.38671875 C212.2327832 512.29341309 211.77806641 513.20010742 211.30957031 514.13427734 C193.86652068 548.65167265 172.13297157 581.49851477 145.8828125 609.98046875 C144.05607095 611.98273351 142.28620026 614.01563577 140.51953125 616.0703125 C136.30079278 620.90282899 131.79525213 625.42562786 127.25 629.94921875 C126.44240234 630.76068359 125.63480469 631.57214844 124.80273438 632.40820312 C119.92747228 637.27560823 114.9423194 641.9325705 109.6875 646.38671875 C109.05175049 646.92917236 108.41600098 647.47162598 107.76098633 648.03051758 C71.03693815 679.16441627 14.59424159 720.8494245 -35.87695312 718.59130859 C-41.04485312 718.15719671 -45.48660476 716.47082942 -50.17773438 714.34570312 C-52.74088873 713.19427697 -55.33021273 712.11306329 -57.921875 711.02734375 C-95.55526376 695.07071593 -129.38923744 674.0346846 -160.3125 647.38671875 C-161.33537109 646.51660156 -161.33537109 646.51660156 -162.37890625 645.62890625 C-174.71019639 635.02879075 -186.93165791 623.81699082 -197.515625 611.4609375 C-199.4871243 609.18514157 -201.52384395 606.97749208 -203.5625 604.76171875 C-209.14846507 598.56139204 -214.24296699 592.00995556 -219.3125 585.38671875 C-219.80153809 584.74927734 -220.29057617 584.11183594 -220.79443359 583.45507812 C-235.13782291 564.70444992 -247.75426358 545.16982625 -259.5 524.69921875 C-259.96269287 523.89331299 -260.42538574 523.08740723 -260.90209961 522.25708008 C-267.84911843 510.04705735 -274.3155358 497.70728204 -280.0625 484.88671875 C-280.35930664 484.22653748 -280.65611328 483.5663562 -280.96191406 482.88616943 C-299.21348019 442.16490283 -313.38770636 399.62557293 -324.3125 356.38671875 C-324.6148053 355.19039825 -324.6148053 355.19039825 -324.92321777 353.96990967 C-336.89057686 306.34873367 -344.1060236 257.82968252 -349.5625 209.07421875 C-349.6397229 208.38528534 -349.7169458 207.69635193 -349.79650879 206.98654175 C-350.25330445 202.87121112 -350.67826307 198.75360717 -351.08392334 194.63293457 C-351.32300746 192.28346224 -351.58797189 189.93760488 -351.85205078 187.59082031 C-353.6772471 170.38311214 -353.6874663 153.16681795 -353.68310547 135.8828125 C-353.68289905 131.56896346 -353.71061505 127.25574955 -353.74464989 122.94205284 C-353.76685213 119.58772785 -353.77094569 116.23356042 -353.76988602 112.87916946 C-353.77223604 111.28677731 -353.78102568 109.69438043 -353.79655075 108.10206223 C-353.81615151 105.89227709 -353.81040647 103.68392938 -353.79833984 101.47412109 C-353.80118988 100.22222992 -353.80403992 98.97033875 -353.80697632 97.68051147 C-353.20355938 93.66104631 -352.27956988 92.14668541 -349.3125 89.38671875 C-346.92566202 88.20153314 -344.78436565 87.29292367 -342.28564453 86.44848633 C-341.23440494 86.07478393 -341.23440494 86.07478393 -340.16192818 85.69353199 C-331.4455499 82.64573794 -322.59309442 80.0220229 -313.7421875 77.3984375 C-311.82499009 76.82554202 -309.90794655 76.25213143 -307.99104309 75.67825317 C-303.87993792 74.44860195 -299.76782965 73.2223883 -295.65487671 71.99893188 C-289.06617937 70.03896874 -282.47982135 68.0712246 -275.89379883 66.10229492 C-267.72973484 63.66210442 -259.56515596 61.22365136 -251.39992237 58.78737736 C-228.6116016 51.9875732 -205.83385315 45.1525674 -183.05633545 38.31668091 C-177.19245771 36.55690952 -171.32832168 34.7980007 -165.46408844 33.03941441 C-144.63934401 26.79437769 -123.81546842 20.54666196 -103.00390625 14.2578125 C-102.24903616 14.0297674 -101.49416607 13.8017223 -100.71642113 13.56676674 C-93.37451264 11.3487667 -86.03339892 9.12820704 -78.6940918 6.90161133 C-73.47741206 5.32031528 -68.25685397 3.75273767 -63.03189087 2.19903564 C-61.25654474 1.66871701 -59.48267754 1.13341467 -57.71054077 0.59246826 C-38.22540312 -5.34889453 -19.56222501 -6.15581763 0 0 Z " fill="#21C9D7" transform="translate(353.3125,3.61328125)"/>
<path d="M0 0 C3.875 1.75 3.875 1.75 5 4 C5.11650352 5.76156419 5.1696747 7.52746447 5.19287109 9.29272461 C5.20870239 10.4112532 5.22453369 11.5297818 5.24084473 12.6822052 C5.25160034 13.90985092 5.26235596 15.13749664 5.2734375 16.40234375 C5.29222961 18.32097481 5.29222961 18.32097481 5.31140137 20.27836609 C5.34730869 24.49804785 5.36419361 28.71768624 5.375 32.9375 C5.37700661 33.65798271 5.37901321 34.37846542 5.38108063 35.12078094 C5.43969922 62.31232527 3.75512898 89.00595845 0.37359619 116.00317383 C-0.00233541 119.01873363 -0.36713734 122.03545677 -0.72900391 125.05273438 C-2.33520161 138.39031487 -4.09816662 151.70143958 -6 165 C-6.11303467 165.79549255 -6.22606934 166.59098511 -6.3425293 167.4105835 C-18.47875472 252.44688815 -40.60204664 337.23958894 -82 421 C-82.4547168 421.90669434 -82.90943359 422.81338867 -83.37792969 423.74755859 C-100.82097932 458.2649539 -122.55452843 491.11179602 -148.8046875 519.59375 C-150.63142905 521.59601476 -152.40129974 523.62891702 -154.16796875 525.68359375 C-158.38670722 530.51611024 -162.89224787 535.03890911 -167.4375 539.5625 C-168.24509766 540.37396484 -169.05269531 541.18542969 -169.88476562 542.02148438 C-174.76002772 546.88888948 -179.7451806 551.54585175 -185 556 C-185.63574951 556.54245361 -186.27149902 557.08490723 -186.92651367 557.64379883 C-223.65056185 588.77769752 -280.09325841 630.46270575 -330.56445312 628.20458984 C-335.73235312 627.77047796 -340.17410476 626.08411067 -344.86523438 623.95898438 C-347.42838873 622.80755822 -350.01771273 621.72634454 -352.609375 620.640625 C-390.24276376 604.68399718 -424.07673744 583.64796585 -455 557 C-456.02287109 556.12988281 -456.02287109 556.12988281 -457.06640625 555.2421875 C-469.39769639 544.642072 -481.61915791 533.43027207 -492.203125 521.07421875 C-494.1746243 518.79842282 -496.21134395 516.59077333 -498.25 514.375 C-503.83596507 508.17467329 -508.93046699 501.62323681 -514 495 C-514.48903809 494.36255859 -514.97807617 493.72511719 -515.48193359 493.06835938 C-530.58681082 473.32226376 -543.8378841 452.67574811 -556 431 C-554 429 -554 429 -550.98046875 427.33203125 C-546.07551145 424.58540698 -541.74541909 421.1270259 -537.3125 417.6875 C-535.4380581 416.24536805 -533.56304409 414.80397947 -531.6875 413.36328125 C-530.74003906 412.63447754 -529.79257812 411.90567383 -528.81640625 411.15478516 C-524.50853933 407.85890847 -520.16054803 404.61756141 -515.8125 401.375 C-508.54812631 395.94761079 -501.36430354 390.42605072 -494.21923828 384.84277344 C-489.31944025 381.01647167 -484.37756341 377.25531257 -479.390625 373.54296875 C-475.65125743 370.75017258 -471.94707795 367.91146231 -468.23876953 365.07763672 C-444.57657426 347 -444.57657426 347 -442 347 C-440.0546875 349.1171875 -440.0546875 349.1171875 -437.875 351.875 C-436.78832031 353.23238281 -436.78832031 353.23238281 -435.6796875 354.6171875 C-434 357 -434 357 -434 359 C-433.4225 359.0825 -432.845 359.165 -432.25 359.25 C-429.3460664 360.21797787 -427.96259396 361.68694284 -426 364 C-426 364.66 -426 365.32 -426 366 C-425.12601562 366.37318359 -425.12601562 366.37318359 -424.234375 366.75390625 C-421.68198151 368.17735647 -420.20826899 369.77165449 -418.25 371.9375 C-400.35346444 390.21606341 -372.88742883 403.55611432 -347.89428711 407.52929688 C-346.0243102 407.83341459 -344.15781263 408.1601776 -342.29663086 408.51416016 C-334.85214269 409.89407649 -327.68721757 410.3151528 -320.125 410.25 C-318.98095703 410.24323242 -317.83691406 410.23646484 -316.65820312 410.22949219 C-308.57652082 410.13059852 -300.93236515 409.62380181 -293 408 C-291.62245092 407.75229764 -290.24484292 407.50492276 -288.8671875 407.2578125 C-261.33863142 402.02062821 -236.15406906 388.30753304 -216 369 C-215.12988281 368.20464844 -214.25976562 367.40929687 -213.36328125 366.58984375 C-187.32828534 341.96616003 -172.33812148 305.2568726 -170.90673828 269.68212891 C-170.78813863 264.83914641 -170.82245522 260.00704913 -170.94677734 255.16455078 C-170.99297037 253.2858931 -171.00896209 251.40653953 -171.01953125 249.52734375 C-171.95503998 221.01165181 -185.15116068 189.97517309 -203.953125 168.62890625 C-204.29859375 168.09136719 -204.6440625 167.55382812 -205 167 C-203.84912535 163.54737604 -203.02795908 163.00905487 -200.16015625 160.91796875 C-199.35320312 160.32258301 -198.54625 159.72719727 -197.71484375 159.11376953 C-196.83957031 158.47810059 -195.96429688 157.84243164 -195.0625 157.1875 C-193.22941636 155.83606172 -191.39740741 154.48316466 -189.56640625 153.12890625 C-188.63586426 152.44199707 -187.70532227 151.75508789 -186.74658203 151.04736328 C-182.61586314 147.96823362 -178.55529183 144.80244556 -174.5 141.625 C-168.82836904 137.19149058 -163.12424597 132.81340161 -157.3515625 128.51171875 C-152.89818843 125.18491742 -148.48275933 121.80808823 -144.0625 118.4375 C-142.71236816 117.40822388 -142.71236816 117.40822388 -141.33496094 116.3581543 C-136.78192116 112.88628053 -132.23040846 109.41241234 -127.6796875 105.9375 C-119.08541816 99.37833702 -110.47355415 92.8457866 -101.8125 86.375 C-94.54864542 80.94690013 -87.36431979 75.42606342 -80.21923828 69.84277344 C-75.30631104 66.00621893 -70.3500102 62.23645733 -65.3515625 58.51171875 C-60.89818843 55.18491742 -56.48275933 51.80808823 -52.0625 48.4375 C-51.16241211 47.75131592 -50.26232422 47.06513184 -49.33496094 46.3581543 C-44.78192116 42.88628053 -40.23040846 39.41241234 -35.6796875 35.9375 C-33.9324114 34.60400976 -32.18501638 33.27067534 -30.4375 31.9375 C-29.58317383 31.28563721 -28.72884766 30.63377441 -27.84863281 29.9621582 C-20.67228205 24.4946878 -13.45674709 19.08031983 -6.21850586 13.69506836 C-5.03720093 12.81347046 -5.03720093 12.81347046 -3.83203125 11.9140625 C-3.13827393 11.3979541 -2.4445166 10.8818457 -1.72973633 10.35009766 C0.11301408 8.96854592 0.11301408 8.96854592 2 7 C2.16687448 4.41645782 2.16687448 4.41645782 2 2 C1.34 2 0.68 2 0 2 C0 1.34 0 0.68 0 0 Z " fill="#9D2DDB" transform="translate(648,94)"/>
<path d="M0 0 C0.67828857 0.00008057 1.35657715 0.00016113 2.05541992 0.00024414 C4.06563401 -0.00189616 6.07581023 -0.02025776 8.0859375 -0.0390625 C16.87694342 -0.05209909 25.27395703 0.67557282 33.93164062 2.18554688 C35.16466919 2.39667114 35.16466919 2.39667114 36.42260742 2.61206055 C64.83895019 7.79399521 90.05761268 21.39505626 110.93164062 41.18554688 C111.88941406 42.07886719 112.8471875 42.9721875 113.83398438 43.89257812 C138.22686741 67.09700895 155.59883368 101.70937683 156.86914062 135.65039062 C156.90007812 137.40029297 156.90007812 137.40029297 156.93164062 139.18554688 C156.993453 140.56188001 157.05599437 141.93818054 157.11914062 143.31445312 C158.30992437 178.00645867 147.80669199 214.58177834 124.93164062 241.18554688 C124.2278125 242.01441406 123.52398437 242.84328125 122.79882812 243.69726562 C120.56330163 246.24929139 118.26595318 248.72363524 115.93164062 251.18554688 C115.48981445 251.65992188 115.04798828 252.13429688 114.59277344 252.62304688 C89.88181655 279.03642876 53.06643749 295.99104476 16.89086914 297.29516602 C13.61213751 297.35492479 10.33589391 297.37112918 7.05664062 297.37304688 C5.96222656 297.38529297 4.8678125 297.39753906 3.74023438 297.41015625 C-3.7267506 297.42341125 -10.75044461 296.64761758 -18.06835938 295.18554688 C-19.20789063 294.96253906 -20.34742188 294.73953125 -21.52148438 294.50976562 C-52.59646781 287.4354328 -77.67748564 273.47832172 -99.75585938 250.37304688 C-101.94895377 248.11443755 -101.94895377 248.11443755 -104.56835938 246.81054688 C-107.96883577 244.60023722 -110.07795299 241.70051985 -112.06835938 238.18554688 C-112.06835938 237.52554688 -112.06835938 236.86554688 -112.06835938 236.18554688 C-113.05835938 235.85554687 -114.04835937 235.52554688 -115.06835938 235.18554688 C-115.77344283 233.19876511 -116.43153133 231.19524697 -117.06835938 229.18554688 C-118.37684825 226.64307636 -119.85851796 224.20601102 -121.31835938 221.74804688 C-140.86097018 187.79922518 -145.13268266 147.49913538 -135.06835938 109.83789062 C-134.57335937 108.02998047 -134.57335937 108.02998047 -134.06835938 106.18554688 C-133.82085937 105.25871094 -133.57335937 104.331875 -133.31835938 103.37695312 C-127.04648818 81.10468327 -113.81946737 61.84898481 -98.06835938 45.18554688 C-97.32199219 44.37472656 -96.575625 43.56390625 -95.80664062 42.72851562 C-79.96837561 26.1048821 -59.60114461 14.6392033 -38.06835938 7.18554688 C-37.15828125 6.85941406 -36.24820313 6.53328125 -35.31054688 6.19726562 C-29.2472723 4.19330199 -22.98163639 3.20297809 -16.69116211 2.18652344 C-3.40085266 0.01532683 -3.40085266 0.01532683 0 0 Z " fill="#DFE4E4" transform="translate(321.068359375,207.814453125)"/>
<path d="M0 0 C0.79664063 0.25523437 1.59328125 0.51046875 2.4140625 0.7734375 C20.55527333 7.05087236 33.52502144 21.74652825 41.75 38.58203125 C44.98639061 47.21547098 45.46621001 55.56368512 45.5625 64.75 C45.57748535 65.87438477 45.5924707 66.99876953 45.60791016 68.15722656 C45.5207719 75.14263898 44.38658836 80.93438088 41.92236328 87.47460938 C40.63874097 90.98911153 40.2203165 93.31422347 41 97 C45.73553043 103.59164736 52.05169865 109.14850095 57.81651497 114.83054924 C59.44759434 116.43926861 61.07439214 118.05220826 62.70005798 119.66639709 C67.31695945 124.25001894 71.93808516 128.82931456 76.56958008 133.39819336 C79.41768989 136.20839593 82.25821501 139.02608276 85.09420586 141.84851265 C86.16658016 142.9129061 87.24170898 143.97453267 88.31978035 145.03315544 C103.11360982 159.56455435 103.11360982 159.56455435 104.68115234 167.40844727 C104.64973145 168.45057373 104.61831055 169.4927002 104.5859375 170.56640625 C104.56660156 171.71044922 104.54726563 172.85449219 104.52734375 174.03320312 C104.47707031 175.19787109 104.42679688 176.36253906 104.375 177.5625 C104.33439453 179.36170898 104.33439453 179.36170898 104.29296875 181.19726562 C104.22278177 184.133421 104.12450929 187.06573113 104 190 C97.39823957 190.12687837 90.796794 190.21438377 84.1940918 190.2746582 C81.94852956 190.29978723 79.703049 190.33389615 77.45776367 190.37719727 C74.22814782 190.43791776 70.99961416 190.46622631 67.76953125 190.48828125 C66.76727005 190.51408768 65.76500885 190.5398941 64.7323761 190.56648254 C60.0176862 190.56837552 57.74791317 190.55224329 53.86450195 187.68481445 C51.48359961 184.25640237 51.4013956 182.01910992 51.375 177.875 C51.50923031 173.20330236 51.50923031 173.20330236 49.6640625 169.1328125 C45.49291931 166.29330188 40.76313221 166.79214702 35.91015625 166.671875 C33 166 33 166 30.6640625 163.90234375 C28.6353365 160.36397892 28.43653505 157.87143996 28.3125 153.8125 C28.32042533 149.2418771 28.32042533 149.2418771 27 145 C23.50542599 143.835142 20.62020201 143.8911742 16.9375 143.8125 C8.37169497 143.42084967 2.36812295 140.60040729 -3.4921875 134.3359375 C-8.0545825 130.50908731 -13.91297575 131.34820984 -19.5625 131.375 C-40.98733873 130.98948584 -56.87834524 125.03329345 -72.3203125 109.6953125 C-83.17773071 97.04961365 -89.586172 80.9704703 -89.3125 64.375 C-89.31572266 63.39015625 -89.31894531 62.4053125 -89.32226562 61.390625 C-89.27960165 55.57281015 -88.6711054 50.57235504 -87 45 C-86.72800781 44.07574219 -86.45601562 43.15148437 -86.17578125 42.19921875 C-80.00254006 24.23815953 -67.12567265 10.3931765 -50.14990234 2.09570312 C-35.2202834 -4.55051636 -15.40034997 -6.04450596 0 0 Z " fill="#FE8001" transform="translate(314,257)"/>
<path d="M0 0 C4.73479056 2.46209109 8.07982676 5.53385269 11 10 C11.7969055 13.82664999 11.39360111 17.05973067 9.875 20.6875 C7.10810612 24.10000245 3.96591654 27.01704173 0 29 C-5.73615779 29.55155363 -8.52050657 28.58359475 -13 25 C-16.68840048 21.71034552 -17.84082761 19.68722731 -18.3125 14.6875 C-17.8426577 9.14336081 -15.47427976 6.29877026 -11.375 2.6875 C-7.37313168 -0.15593276 -4.947437 -0.41228642 0 0 Z " fill="#EBCDC1" transform="translate(278,283)"/>
<path d="M0 0 C0.12004395 0.59611084 0.24008789 1.19222168 0.36376953 1.80639648 C11.52259445 56.94442835 26.58794575 111.32253686 49 163 C49.64478207 164.50249656 50.28933069 166.00509332 50.93359375 167.5078125 C52.59075419 171.35293196 54.28248387 175.18148433 56 179 C56.27908203 179.62132812 56.55816406 180.24265625 56.84570312 180.8828125 C60.44014371 188.8413461 64.28380161 196.61089435 68.51147461 204.25415039 C71 208.79495335 71 208.79495335 71 211 C72.65 210.67 74.3 210.34 76 210 C75.67 210.66 75.34 211.32 75 212 C72.4375 212.625 72.4375 212.625 70 213 C65.39580791 206.09371187 61.75554326 198.76564519 58.12988281 191.31738281 C57.37052065 189.7599356 56.60677426 188.20461908 55.83886719 186.65136719 C43.11735855 160.90570533 33.2374176 134.14767156 24 107 C23.62246582 105.89479004 23.24493164 104.78958008 22.85595703 103.65087891 C14.21495282 78.14185519 7.46627362 51.98692597 1.4375 25.75 C1.26742432 25.01460999 1.09734863 24.27921997 0.92211914 23.52154541 C-0.79866458 16.0429654 -2.37851581 8.66213379 -3 1 C-1 0 -1 0 0 0 Z " fill="#2FE4B2" transform="translate(22,311)"/>
<path d="M0 0 C0.66 0.33 1.32 0.66 2 1 C1.67 1.66 1.34 2.32 1 3 C1.66 3.33 2.32 3.66 3 4 C4.24268256 6.00855647 5.41840606 8.058697 6.5625 10.125 C7.2812359 11.4069888 8.00133549 12.68821381 8.72265625 13.96875 C9.09664551 14.63390625 9.47063477 15.2990625 9.85595703 15.984375 C20.43072072 34.61545673 32.40046542 52.44056672 46 69 C46.71929687 69.89332031 47.43859375 70.78664063 48.1796875 71.70703125 C53.25982816 77.99128829 58.56038328 84.02631182 64 90 C65.33881808 91.47420418 66.67261356 92.95299435 68 94.4375 C68.556875 95.05496094 69.11375 95.67242188 69.6875 96.30859375 C71 98 71 98 72 101 C73.485 101.495 73.485 101.495 75 102 C76.47265625 103.56640625 76.47265625 103.56640625 78.0625 105.5625 C81.50884385 109.64542966 85.32305335 112.82020822 89.5703125 116.04296875 C92.24676816 118.19876342 94.5791944 120.56115561 97 123 C113.62572419 138.34378504 131.93026069 151.2417519 151.25976562 162.94384766 C153.0886329 164.05379152 154.91151147 165.17319629 156.734375 166.29296875 C164.32347156 170.92935069 171.95900331 175.18164962 180 179 C180 179.99 180 180.98 180 182 C150.62435401 167.05886338 123.96124251 149.51022509 99 128 C97.97712891 127.12988281 97.97712891 127.12988281 96.93359375 126.2421875 C84.60230361 115.642072 72.38084209 104.43027207 61.796875 92.07421875 C59.8253757 89.79842282 57.78865605 87.59077333 55.75 85.375 C50.16403493 79.17467329 45.06953301 72.62323681 40 66 C39.51096191 65.36255859 39.02192383 64.72511719 38.51806641 64.06835938 C23.41318918 44.32226376 10.1621159 23.67574811 -2 2 C-1.34 1.34 -0.68 0.68 0 0 Z " fill="#D63CE5" transform="translate(94,523)"/>
<path d="M0 0 C0.12004395 0.59611084 0.24008789 1.19222168 0.36376953 1.80639648 C5.87076375 29.01757911 12.04939419 56.29678442 20.171875 82.8671875 C21 86 21 86 21.3359375 89.578125 C22.16218589 97.12719621 25.41004527 104.33293983 27.9375 111.44140625 C28.34226562 112.61058594 28.74703125 113.77976562 29.1640625 114.984375 C29.53998535 116.04366211 29.9159082 117.10294922 30.30322266 118.19433594 C31.02301948 121.0926909 30.8256646 122.22831474 30 125 C19.0151616 92.23356505 9.20399518 59.43007371 1.4375 25.75 C1.26688049 25.01297852 1.09626099 24.27595703 0.92047119 23.51660156 C-0.79971966 16.03974703 -2.37866503 8.6602942 -3 1 C-1 0 -1 0 0 0 Z " fill="#36E7B6" transform="translate(22,311)"/>
<path d="M0 0 C0.33 0 0.66 0 1 0 C1.00142502 0.58974609 1.00285004 1.17949219 1.00431824 1.78710938 C1.15433864 48.94699545 4.35499815 95.44633025 10.56347656 142.21459961 C10.66792084 143.02666367 10.77236511 143.83872772 10.87997437 144.67539978 C11.07110753 146.15784466 11.2698781 147.63933874 11.47866821 149.11940002 C12.09890345 153.99343439 11.75808232 158.18694946 11 163 C10.67 163 10.34 163 10 163 C8.0299553 148.68756605 6.16508034 134.36371649 4.38000488 120.02703857 C4.03533369 117.28146068 3.6810341 114.53734947 3.32324219 111.79345703 C-1.44974629 74.70721564 -0.39853353 37.31145872 0 0 Z " fill="#58DDC6" transform="translate(0,99)"/>
<path d="M0 0 C0.66 0 1.32 0 2 0 C5.51812968 6.30669329 8.24970076 12.88694914 10.8125 19.625 C11.12646729 20.42397705 11.44043457 21.2229541 11.76391602 22.04614258 C13.70693977 27.27081333 14.32510167 31.42864984 14 37 C14.66 37 15.32 37 16 37 C19.94354424 64.23073238 21.1683469 91.56537545 12 118 C11.34 118 10.68 118 10 118 C9.896875 119.051875 9.79375 120.10375 9.6875 121.1875 C9.02266585 124.87430754 8.11433704 126.96638599 6 130 C5 128 5 128 5.85546875 125.375 C6.29503906 124.26125 6.73460937 123.1475 7.1875 122 C14.25999825 103.16802108 16.56695911 83.17521212 16.05322266 63.16455078 C16.00702963 61.2858931 15.99103791 59.40653953 15.98046875 57.52734375 C15.36295788 38.70469751 8.69406705 20.61270383 0.73095703 3.77392578 C0 2 0 2 0 0 Z " fill="#8A5BD7" transform="translate(461,286)"/>
<path d="M0 0 C3.56514876 1.53613553 6.03870356 3.6838452 8.875 6.3125 C11.64357368 8.8534083 14.39645737 11.37929521 17.3125 13.75 C20 16 20 16 22.2734375 18.29296875 C38.79726694 34.69843265 58.42319367 47.93477317 78.25976562 59.94384766 C80.0886329 61.05379152 81.91151147 62.17319629 83.734375 63.29296875 C91.32347156 67.92935069 98.95900331 72.18164962 107 76 C107 76.99 107 77.98 107 79 C77.62435401 64.05886338 50.96124251 46.51022509 26 25 C25.31808594 24.41992188 24.63617188 23.83984375 23.93359375 23.2421875 C19.24783773 19.214259 14.72085719 15.01007285 10.1875 10.8125 C9.52830566 10.20559326 8.86911133 9.59868652 8.18994141 8.97338867 C5.16175611 6.15370777 2.31175809 3.46334019 0 0 Z " fill="#CC35E4" transform="translate(167,626)"/>
<path d="M0 0 C3.16083436 2.1072229 3.60000916 2.78557597 5.015625 6.11328125 C5.37664307 6.94359863 5.73766113 7.77391602 6.10961914 8.62939453 C6.48594482 9.51481934 6.86227051 10.40024414 7.25 11.3125 C10.44512541 18.65042961 13.8364433 25.69785235 17.78515625 32.6640625 C19 35 19 35 19 37 C21.475 36.505 21.475 36.505 24 36 C23.67 36.66 23.34 37.32 23 38 C20.4375 38.625 20.4375 38.625 18 39 C13.30455627 31.9568344 9.65872099 24.47893957 5.94140625 16.89306641 C4.30230721 13.59701507 2.56141763 10.35223068 0.8125 7.11328125 C-0.14326252 4.62737969 -0.14801207 2.64109036 0 0 Z " fill="#20E1AD" transform="translate(74,485)"/>
<path d="M0 0 C0.66 0 1.32 0 2 0 C5.51812968 6.30669329 8.24970076 12.88694914 10.8125 19.625 C11.12646729 20.42397705 11.44043457 21.2229541 11.76391602 22.04614258 C13.70693977 27.27081333 14.32510167 31.42864984 14 37 C14.66 37 15.32 37 16 37 C17.06309567 42.17317421 17.11693938 47.12369336 17.0625 52.375 C17.05798828 53.20644531 17.05347656 54.03789062 17.04882812 54.89453125 C17.03713164 56.92971897 17.01919935 58.96486923 17 61 C16.67 61 16.34 61 16 61 C15.99742187 60.2678125 15.99484375 59.535625 15.9921875 58.78125 C15.29965275 39.39027714 8.95500452 21.16448175 0.73095703 3.77392578 C0 2 0 2 0 0 Z " fill="#9A62CD" transform="translate(461,286)"/>
<path d="M0 0 C4.45169383 3.53098103 5.34647278 7.47213081 6.6875 12.75 C6.89955078 13.5234375 7.11160156 14.296875 7.33007812 15.09375 C8.28220245 18.67397776 9.00188597 22.01973017 9.35546875 25.71875 C10.16852627 33.21042775 13.4298648 40.38868226 15.9375 47.44140625 C16.34226562 48.61058594 16.74703125 49.77976562 17.1640625 50.984375 C17.53998535 52.04366211 17.9159082 53.10294922 18.30322266 54.19433594 C19.02301948 57.0926909 18.8256646 58.22831474 18 61 C16.07605593 55.13358542 14.15564031 49.26603105 12.23828125 43.39746094 C11.58752287 41.40724633 10.93585355 39.41732932 10.28320312 37.42773438 C0 6.07342791 0 6.07342791 0 0 Z " fill="#5CE5C2" transform="translate(34,375)"/>
<path d="M0 0 C3.65169406 3.20725817 3.94776795 6.73379421 4.640625 11.359375 C4.7719281 12.18197815 4.9032312 13.0045813 5.03851318 13.85211182 C5.31324167 15.59285578 5.5818305 17.33457822 5.84472656 19.07714844 C6.24679512 21.72886326 6.67263987 24.37594957 7.1015625 27.0234375 C7.36602308 28.718526 7.62908893 30.41383281 7.890625 32.109375 C8.0176178 32.89503845 8.1446106 33.6807019 8.27545166 34.49017334 C8.98053307 39.27873879 8.9200176 43.24210451 8 48 C7.67 48 7.34 48 7 48 C5.9968032 42.1294692 5.0000858 36.25788829 4.00927734 30.38525391 C3.67152579 28.38886047 3.33202586 26.39276198 2.99072266 24.39697266 C2.49959388 21.52322497 2.01482503 18.64846469 1.53125 15.7734375 C1.37813354 14.88570648 1.22501709 13.99797546 1.06726074 13.08334351 C0.33085247 8.66727519 -0.1801291 4.49679427 0 0 Z " fill="#48E4BE" transform="translate(11,263)"/>
<path d="M0 0 C-2.64738916 1.4606285 -3.89448334 2 -7 2 C-7.33 2.66 -7.66 3.32 -8 4 C-10.06640625 4.4140625 -10.06640625 4.4140625 -12.5625 4.625 C-13.38878906 4.69976562 -14.21507812 4.77453125 -15.06640625 4.8515625 C-16.02353516 4.92503906 -16.02353516 4.92503906 -17 5 C-17 5.66 -17 6.32 -17 7 C-19.8088539 7.99082549 -22.62137854 8.96772452 -25.4375 9.9375 C-26.22060547 10.21529297 -27.00371094 10.49308594 -27.81054688 10.77929688 C-32.57681335 12.4072809 -37.01574597 13.4102041 -42.04394531 13.77905273 C-44.2687148 13.95993755 -44.2687148 13.95993755 -47.3125 15.125 C-50.21402383 16.06968218 -51.17976659 15.8538873 -54 15 C-48.20183717 13.2029601 -42.40349083 11.4065139 -36.60498047 9.6105957 C-34.63618104 9.00072919 -32.66743013 8.39070607 -30.69873047 7.78051758 C-27.85397155 6.89882975 -25.00903332 6.01772254 -22.1640625 5.13671875 C-21.29697662 4.86784348 -20.42989075 4.5989682 -19.53652954 4.32194519 C-17.86397105 3.80423419 -16.19062065 3.28907343 -14.51641846 2.77670288 C-12.74523961 2.23002126 -10.97791544 1.67077159 -9.21356201 1.10244751 C-8.31470276 0.81832001 -7.41584351 0.5341925 -6.48974609 0.24145508 C-5.676539 -0.02028 -4.86333191 -0.28201508 -4.02548218 -0.55168152 C-2 -1 -2 -1 0 0 Z " fill="#62E3D1" transform="translate(62,76)"/>
<path d="M0 0 C0.66 0.33 1.32 0.66 2 1 C1.67 1.66 1.34 2.32 1 3 C1.66 3.33 2.32 3.66 3 4 C4.24268256 6.00855647 5.41840606 8.058697 6.5625 10.125 C7.27199892 11.39273327 7.98299305 12.65963064 8.6953125 13.92578125 C9.06817383 14.58916504 9.44103516 15.25254883 9.82519531 15.93603516 C11.81138607 19.42548998 13.8708936 22.87024222 15.9375 26.3125 C16.32687744 26.96428223 16.71625488 27.61606445 17.11743164 28.28759766 C18.83069473 31.31321109 18.83069473 31.31321109 21 34 C21.04063832 35.66617115 21.042721 37.33388095 21 39 C17.4271827 34.7844095 14.59635708 30.27863559 11.75 25.5625 C11.27199951 24.77568848 10.79399902 23.98887695 10.30151367 23.17822266 C6.0744342 16.189809 1.99644732 9.12260811 -2 2 C-1.34 1.34 -0.68 0.68 0 0 Z " fill="#E263E9" transform="translate(94,523)"/>
<path d="M0 0 C3.46858339 0.66432531 6.05149138 2.04699707 9.078125 3.84375 C10.5621582 4.71845947 10.5621582 4.71845947 12.07617188 5.61083984 C13.12353516 6.2342627 14.17089844 6.85768555 15.25 7.5 C17.4108778 8.77442235 19.57233837 10.04785708 21.734375 11.3203125 C23.32668945 12.25858887 23.32668945 12.25858887 24.95117188 13.21582031 C29.10839736 15.64863612 33.29624291 18.02371288 37.5 20.375 C38.1693457 20.74947266 38.83869141 21.12394531 39.52832031 21.50976562 C41.01794559 22.34151981 42.50880175 23.17106921 44 24 C43.67 24.66 43.34 25.32 43 26 C32.47445237 20.64646173 22.03088798 15.20076898 11.9375 9.0625 C11.19516113 8.61479248 10.45282227 8.16708496 9.68798828 7.70581055 C6.02819567 5.44580131 2.89266964 3.23828731 0 0 Z " fill="#C22EE2" transform="translate(231,679)"/>
<path d="M0 0 C0.33 0 0.66 0 1 0 C3.21157554 9.5176733 4.44723112 18.17747938 4 28 C1.66072678 23.66624022 0.81248216 19.28691819 -0.1875 14.5 C-0.37763672 13.64535156 -0.56777344 12.79070312 -0.76367188 11.91015625 C-0.93833984 11.08386719 -1.11300781 10.25757813 -1.29296875 9.40625 C-1.4530542 8.65666016 -1.61313965 7.90707031 -1.77807617 7.13476562 C-2.02019036 4.80578162 -1.74945108 3.2076386 -1 1 C-0.67 0.67 -0.34 0.34 0 0 Z " fill="#48E7BD" transform="translate(21,311)"/>
<path d="M0 0 C14.58769231 18.00615385 14.58769231 18.00615385 17 28 C13.8747128 25.25173157 11.86420647 21.81008621 9.6875 18.3125 C6.66420694 13.4998984 3.55640827 8.91518553 -0.1015625 4.55078125 C-0.39804687 4.03902344 -0.69453125 3.52726562 -1 3 C-0.67 2.01 -0.34 1.02 0 0 Z " fill="#A66DC8" transform="translate(444,258)"/>
<path d="M0 0 C0.66 0.33 1.32 0.66 2 1 C1.154375 1.7734375 0.30875 2.546875 -0.5625 3.34375 C-6.8426652 9.10396645 -13.03626532 14.90967661 -19 21 C-19.99877526 22.00122324 -20.99861015 23.00139179 -22 24 C-22.66 24.66 -23.32 25.32 -24 26 C-18.95448424 15.23301422 -9.47810257 6.88105807 0 0 Z " fill="#63B9B4" transform="translate(236,239)"/>
<path d="M0 0 C-3.99303715 1.82290826 -7.8166156 3.2509005 -12.0625 4.375 C-16.77573528 5.72061068 -19.50681536 7.59874127 -23 11 C-23.33 10.34 -23.66 9.68 -24 9 C-20.66965612 3.7247353 -17.17427167 2.63544115 -11.4375 1.125 C-10.66986328 0.90070313 -9.90222656 0.67640625 -9.11132812 0.4453125 C-3.4240886 -1.14136287 -3.4240886 -1.14136287 0 0 Z " fill="#2BDEBE" transform="translate(24,89)"/>
<path d="M0 0 C23.18240142 -0.51772112 23.18240142 -0.51772112 27.76171875 3.57421875 C28.17035156 4.04472656 28.57898438 4.51523438 29 5 C23.30419129 4.54814044 17.87113877 3.8081084 12.31640625 2.4765625 C8.25205428 1.64038891 4.13185632 1.32778818 0 1 C0 0.67 0 0.34 0 0 Z " fill="#5DBFC9" transform="translate(341,208)"/>
<path d="M0 0 C0 4.28407687 -2.38493102 6.85519593 -4.75 10.25 C-8.0673813 15.0621316 -11.16470949 19.88587786 -14 25 C-14.6875 23.2890625 -14.6875 23.2890625 -15 21 C-13.8125 18.7734375 -13.8125 18.7734375 -12 16.375 C-11.35804688 15.50746094 -10.71609375 14.63992188 -10.0546875 13.74609375 C-9.03761719 12.38677734 -9.03761719 12.38677734 -8 11 C-6.70225748 9.15008077 -5.41028466 7.29609628 -4.125 5.4375 C-1.12307692 1.12307692 -1.12307692 1.12307692 0 0 Z " fill="#69B9B1" transform="translate(211,265)"/>
<path d="M0 0 C8.34532212 1.26525851 16.67780601 2.59047525 25 4 C25 4.33 25 4.66 25 5 C6.06188655 5.65935405 6.06188655 5.65935405 1.1875 1.42578125 C0.795625 0.95527344 0.40375 0.48476563 0 0 Z " fill="#AB53E6" transform="translate(290,500)"/>
<path d="M0 0 C2.36038857 3.54058286 3.69776886 7.09806253 5.1875 11.0625 C5.47302734 11.79533203 5.75855469 12.52816406 6.05273438 13.28320312 C6.76356416 15.16664262 7.38849705 17.08200952 8 19 C7.67 19.66 7.34 20.32 7 21 C4.20485255 17.73232046 3.03968613 14.60002414 1.8125 10.5 C1.46832031 9.3759375 1.12414062 8.251875 0.76953125 7.09375 C0 4 0 4 0 0 Z " fill="#57CDCE" transform="translate(187,400)"/>
<path d="M0 0 C3 2 3 2 3.546875 4.1015625 C3.9897372 9.60327362 3.9081871 14.55087738 3 20 C2.67 20 2.34 20 2 20 C1.66131223 17.79248152 1.32928311 15.58394089 1 13.375 C0.814375 12.14523438 0.62875 10.91546875 0.4375 9.6484375 C0.04597484 6.3833973 -0.08080924 3.28287549 0 0 Z " fill="#5CE4C5" transform="translate(8,242)"/>
<path d="M0 0 C3.59844449 1.51642877 5.85713143 3.64973442 8.5625 6.4375 C9.32691406 7.21996094 10.09132812 8.00242187 10.87890625 8.80859375 C11.57886719 9.53175781 12.27882812 10.25492187 13 11 C13.99780462 12.00219057 14.99680002 13.00321025 16 14 C11.71657993 13.52406444 9.84426611 11.05238315 7 8 C6.113125 7.13375 5.22625 6.2675 4.3125 5.375 C2 3 2 3 0 0 Z " fill="#CC69EA" transform="translate(222,460)"/>
<path d="M0 0 C-6.24161903 3.58125682 -10.75420281 5.67090715 -18 5 C-14.81886649 2.87924433 -12.07995044 1.93982824 -8.4375 0.8125 C-7.28121094 0.44769531 -6.12492187 0.08289063 -4.93359375 -0.29296875 C-2 -1 -2 -1 0 0 Z " fill="#6CE1D9" transform="translate(82,70)"/>
<path d="M0 0 C1.01573289 3.04719867 1.0097124 3.98833004 0.44140625 7.01171875 C0.30283203 7.76904297 0.16425781 8.52636719 0.02148438 9.30664062 C-0.12998047 10.09232422 -0.28144531 10.87800781 -0.4375 11.6875 C-0.58509766 12.48478516 -0.73269531 13.28207031 -0.88476562 14.10351562 C-1.24984964 16.07025852 -1.62405289 18.03530467 -2 20 C-2.33 20 -2.66 20 -3 20 C-2.88641524 17.04081802 -2.75966914 14.08323217 -2.625 11.125 C-2.5940625 10.28324219 -2.563125 9.44148438 -2.53125 8.57421875 C-2.49257812 7.76855469 -2.45390625 6.96289062 -2.4140625 6.1328125 C-2.3826416 5.38918457 -2.3512207 4.64555664 -2.31884766 3.87939453 C-2 2 -2 2 0 0 Z " fill="#6CC2BB" transform="translate(185,317)"/>
<path d="M0 0 C5.79433277 0.62981878 11.61791726 1.69760994 17 4 C17.99 5.485 17.99 5.485 19 7 C12.51292846 5.3186083 6.2322365 3.46937673 0 1 C0 0.67 0 0.34 0 0 Z " fill="#64BFC8" transform="translate(370,213)"/>
<path d="M0 0 C0.99 0.33 1.98 0.66 3 1 C3.84888195 6.37625234 4.0024305 10.65370398 3 16 C2.67 16 2.34 16 2 16 C1.66104344 14.27192682 1.32908475 12.54248026 1 10.8125 C0.814375 9.84957031 0.62875 8.88664062 0.4375 7.89453125 C0.03122388 5.2065794 -0.07933572 2.71228981 0 0 Z " fill="#56E6C2" transform="translate(16,295)"/>
<path d="M0 0 C0.66 0.33 1.32 0.66 2 1 C1.67 1.66 1.34 2.32 1 3 C1.66 3.33 2.32 3.66 3 4 C3.40729228 6.32156597 3.74438677 8.6568787 4 11 C1.25722422 7.80009492 -0.6302836 4.99500618 -2 1 C-1.34 0.67 -0.68 0.34 0 0 Z " fill="#E37AEB" transform="translate(94,523)"/>
<path d="M0 0 C3.0011414 2.42027532 3.9392619 3.75270914 4.875 7.5625 C5 11 5 11 3 14 C2.49307308 12.4188708 1.99473557 10.83498617 1.5 9.25 C1.2215625 8.36828125 0.943125 7.4865625 0.65625 6.578125 C0 4 0 4 0 0 Z " fill="#43E4B9" transform="translate(34,375)"/>
<path d="M0 0 C-2.46301423 2.46301423 -4.27360036 2.76766521 -7.625 3.625 C-9.12933594 4.01558594 -9.12933594 4.01558594 -10.6640625 4.4140625 C-11.43492188 4.60742188 -12.20578125 4.80078125 -13 5 C-13 4.34 -13 3.68 -13 3 C-8.37802694 0.78145293 -5.23175837 -0.38281159 0 0 Z " fill="#20D8C4" transform="translate(68,75)"/>
<path d="M0 0 C0.639375 0.804375 1.27875 1.60875 1.9375 2.4375 C3.40603502 4.2750504 3.40603502 4.2750504 5 6 C5.04063832 7.66617115 5.042721 9.33388095 5 11 C1.7089159 7.39042389 0.45336079 4.87362847 0 0 Z " fill="#D55EE9" transform="translate(110,551)"/>
<path d="M0 0 C3 3.75 3 3.75 3 6 C4.65 5.67 6.3 5.34 8 5 C7.67 5.66 7.34 6.32 7 7 C4.4375 7.625 4.4375 7.625 2 8 C0.74335022 5.09399739 0 3.20395416 0 0 Z " fill="#26E5A5" transform="translate(90,516)"/>
</svg>
